# xmcd
#
# Track frame offsets:
# 150
# 26706
# 42477
# 64825
# 78180
# 101834
# 114288
# 130092
# 140377
# 151092
# 166690
# 191520
#
# Disc length: 2881 seconds
#
#
# Revision: 0
# Processed by: cddbd v1.5.2PL0 Copyright (c) Steve Scherf et al.
# Submitted via: FreeRIP 2.945 
#
DISCID=930b3f0c
DTITLE=Floyd Lee - Mean Blues
DYEAR=2001
DGENRE=Blues
TTITLE0=Down in Lamar
TTITLE1=How Low Can You Go
TTITLE2=Mean Blues
TTITLE3=High Maintenance Woman
TTITLE4=Devil At Your Doorstep
TTITLE5=Third Degree Charm
TTITLE6=Sea Saw Sally
TTITLE7=Lose My Number
TTITLE8=Hard Working Woman
TTITLE9=Pea Patch Blues
TTITLE10=When You Breake A Young Girls' Heart
TTITLE11=Come Home
EXTD=
EXTT0=
EXTT1=
EXTT2=
EXTT3=
EXTT4=
EXTT5=
EXTT6=
EXTT7=
EXTT8=
EXTT9=
EXTT10=
EXTT11=
PLAYORDER=
